<?xml version="1.0" standalone="no"?><!DOCTYPE svg PUBLIC "-//W3C//DTD SVG 1.1//EN" "http://www.w3.org/Graphics/SVG/1.1/DTD/svg11.dtd"><svg t="1613929209127" class="icon" viewBox="0 0 1024 1024" version="1.1" xmlns="http://www.w3.org/2000/svg" p-id="2491" xmlns:xlink="http://www.w3.org/1999/xlink" width="16" height="16"><defs><style type="text/css"></style></defs><path d="M958.694133 777.60731 958.694133 149.818167c0 0-7.240915-45.87584-48.28368-48.291866L596.525604 101.526301c-48.301076 2.417049-72.451102 48.291866-72.451102 48.291866l-24.133653 0c0 0-24.150026-45.87584-72.451102-48.291866L113.604896 101.526301c-41.041742 4.834098-48.301076 48.291866-48.301076 48.291866l0 627.789143c0 0-2.407839 72.433706 48.301076 72.433706l313.885873 0 72.451102 72.432683 24.133653 0 72.451102-72.432683 313.88485 0C961.120392 850.041016 958.694133 777.60731 958.694133 777.60731L958.694133 777.60731zM475.791845 726.897372c2.407839 45.87584-12.076036 50.709939-45.893236 50.709939l-292.143687 0L137.754922 173.968194l289.734824 0c48.301076 0 48.301076 48.291866 48.301076 48.291866L475.790822 726.897372 475.791845 726.897372zM886.261451 777.60731 594.100368 777.60731c-33.799804-2.408863-48.28368-4.834098-45.87584-50.709939L548.224528 222.26006c0 0 0-48.291866 48.301076-48.291866l289.735847 0L886.261451 777.60731 886.261451 777.60731zM886.261451 777.60731" p-id="2492" fill="#ffffff"></path></svg>