<?xml version="1.0" standalone="no"?><!DOCTYPE svg PUBLIC "-//W3C//DTD SVG 1.1//EN" "http://www.w3.org/Graphics/SVG/1.1/DTD/svg11.dtd"><svg class="icon" width="200px" height="200.00px" viewBox="0 0 1024 1024" version="1.1" xmlns="http://www.w3.org/2000/svg"><path fill="#ffffff" d="M229.13 247.7m8 0l48 0q8 0 8 8l0 48q0 8-8 8l-48 0q-8 0-8-8l0-48q0-8 8-8ZM357.13 247.7m8 0l48 0q8 0 8 8l0 48q0 8-8 8l-48 0q-8 0-8-8l0-48q0-8 8-8ZM517.13 823.7h-352v-408h688v64a8 8 0 0 0 8 8h40a8 8 0 0 0 8-8v-304a32 32 0 0 0-32-32h-736a32 32 0 0 0-32 32v672a32 32 0 0 0 32 32h376a8 8 0 0 0 8-8v-40a8 8 0 0 0-8-8z m-352-624h688v160h-688zM895.14 766.85l-36.43-21a120.55 120.55 0 0 0 0-68.22l36.43-21a8 8 0 0 0 3.41-10 167.81 167.81 0 0 0-21.11-36.51 8 8 0 0 0-10.32-2l-36.43 21A119.87 119.87 0 0 0 771.64 595v-42a8 8 0 0 0-7.08-7.95 168.9 168.9 0 0 0-41.84 0 8 8 0 0 0-7.08 7.95v42a119.87 119.87 0 0 0-59.12 34.19l0.07-0.07-36.43-21a8 8 0 0 0-10.32 2 167.81 167.81 0 0 0-21.11 36.51 8 8 0 0 0 3.41 10l36.43 21a120.12 120.12 0 0 0-4.91 35.82 118.79 118.79 0 0 0 5 32.4h-0.07l-36.43 21a8 8 0 0 0-3.41 10 167.82 167.82 0 0 0 21.11 36.51 8 8 0 0 0 10.32 2l36.43-21 0.11-0.11a120.34 120.34 0 0 0 59.07 34.22h-0.13v42a8 8 0 0 0 7.08 7.95 168.9 168.9 0 0 0 41.84 0 8 8 0 0 0 7.08-7.95v-42a119.88 119.88 0 0 0 59.05-34.12l36.43 21a8 8 0 0 0 10.32-2 167.81 167.81 0 0 0 21.11-36.51 8 8 0 0 0-3.43-9.99z m-151.5 8.85h-0.93c-34.3-0.48-62.59-28.77-63.06-63.06a64 64 0 1 1 64 63.07z" /></svg>