<?xml version="1.0" standalone="no"?><!DOCTYPE svg PUBLIC "-//W3C//DTD SVG 1.1//EN" "http://www.w3.org/Graphics/SVG/1.1/DTD/svg11.dtd"><svg class="icon" width="200px" height="200.00px" viewBox="0 0 1024 1024" version="1.1" xmlns="http://www.w3.org/2000/svg"><path fill="#ffffff" d="M939 427.4c-4.7-24.8-19.3-40.8-37.2-40.8h-4.5c-62.6 0-113.6-51.3-113.6-114.3 0-20.7 9.8-43.5 9.9-43.7 9.7-21.9 2.2-48.8-17.3-62.5l-1.1-0.8-109.2-61-1.2-0.5c-6.5-2.8-13.6-4.3-21.1-4.3-15.5 0-30.8 6.2-40.8 16.7-13.3 13.8-55.4 49.8-89.3 49.8-34.2 0-76.5-36.7-89.9-50.8-10-10.7-25.4-17-41.1-17-7.4 0-14.4 1.4-20.7 4.1l-1.2 0.5-113.1 62.5-1.1 0.8c-19.6 13.7-27.1 40.6-17.4 62.4 0.1 0.2 9.9 23 9.9 43.7 0 63-50.9 114.3-113.6 114.3h-4.5c-17.9 0-32.5 16.1-37.2 40.8-0.4 2-9.2 49.1-9.2 86.1 0 37.1 8.8 84.2 9.2 86.1 4.7 24.8 19.3 40.9 37.2 40.9h4.5c62.6 0 113.6 51.3 113.6 114.3 0 20.8-9.8 43.5-9.9 43.7-9.7 21.9-2.3 48.8 17.3 62.5l1.1 0.7 107.2 60.3 1.1 0.5c6.5 2.9 13.5 4.3 21 4.3 15.7 0 31.1-6.5 41-17.4 12.6-13.7 56.3-53 91.3-53 35.3 0 78.3 39 92 54 10 11.1 25.4 17.7 41.3 17.7 7.3 0 14.3-1.4 20.6-4.1l1.2-0.5 111.1-61.8 1.1-0.8c19.5-13.7 27-40.6 17.4-62.4-0.1-0.2-9.9-23-9.9-43.8 0-63 51-114.3 113.6-114.3H901.9c18 0 32.6-16 37.3-40.9 0.4-2 9.2-49 9.2-86.1-0.2-36.8-9-83.9-9.4-85.9z m-42.9 164.2c-0.4 2.2-0.9 3.9-1.4 5.3-85.5 1.4-154.7 71.7-154.7 157.9 0 29.3 12.2 58 13.6 61.4 1.2 2.6 0.2 6.7-2 8.6L645 884.2c-0.7 0.2-1.7 0.3-2.7 0.3-3.9 0-7.5-1.7-9-3.3-6.3-7-63.7-68.3-124.3-68.3-61.4 0-121 64.4-123.5 67.2-1.4 1.5-5 3.2-8.8 3.2-1.1 0-2.1-0.1-2.9-0.4L271 825c-2.2-2-3.2-6.1-1.8-9.2 2.2-5.2 13.4-32.7 13.4-61 0-86.2-69.1-156.5-154.6-157.9-0.5-1.3-1-3.1-1.5-5.3-0.1-0.4-8.4-45-8.4-78.1 0-33.1 8.3-77.6 8.4-78.1 0.4-2.2 0.9-3.9 1.5-5.3 85.5-1.4 154.6-71.7 154.6-157.9 0-29.7-12.2-58.2-13.6-61.4-1.2-2.6-0.2-6.7 2-8.6l108.6-60c0.8-0.2 1.8-0.4 3-0.4 4.1 0 7.8 1.7 9.4 3.4 6.2 6.6 62.8 64.4 121.6 64.4 58.3 0 114.6-56.7 120.9-63.3 1.2-1.2 4.8-3.2 9.3-3.2 1.2 0 2.3 0.1 3.1 0.4l104.8 58.6c2.2 2 3.2 6.1 1.9 8.9-1.4 3.2-13.5 31.8-13.5 61.2 0 86.2 69.1 156.5 154.6 157.9 0.5 1.3 1 3.1 1.4 5.2 0.1 0.5 8.4 45.1 8.4 78.1 0 33.2-8.3 77.8-8.4 78.2zM509.4 381.9c-72.2 0-131 58.8-131 131.1s58.8 131.1 131 131.1c72.3 0 131.1-58.8 131.1-131.1s-58.8-131.1-131.1-131.1z m0 218.5c-48.2 0-87.4-39.2-87.4-87.4s39.2-87.4 87.4-87.4 87.4 39.2 87.4 87.4-39.2 87.4-87.4 87.4z" /></svg>