<?xml version="1.0" standalone="no"?><!DOCTYPE svg PUBLIC "-//W3C//DTD SVG 1.1//EN" "http://www.w3.org/Graphics/SVG/1.1/DTD/svg11.dtd"><svg class="icon" width="16px" height="16.00px" viewBox="0 0 1024 1024" version="1.1" xmlns="http://www.w3.org/2000/svg"><path fill="#2c2c2c" d="M238.276923 356.430769c-3.938462-19.692308-5.907692-43.323077-5.907692-66.953846 0-25.6 5.907692-55.138462 17.723077-82.707692 11.815385-29.538462 29.538462-57.107692 55.138461-80.738462 23.630769-23.630769 57.107692-45.292308 94.523077-61.046154 39.384615-15.753846 84.676923-25.6 139.815385-25.6 49.230769 0 96.492308 5.907692 141.784615 19.692308 35.446154 11.815385 68.923077 31.507692 98.461539 59.076923 11.815385 11.815385 11.815385 31.507692-1.969231 43.323077l-53.169231 49.230769c-11.815385 9.846154-29.538462 11.815385-41.353846 0-13.784615-13.784615-29.538462-25.6-47.261539-35.446154-27.569231-13.784615-59.076923-21.661538-96.492307-21.661538-33.476923 0-63.015385 3.938462-84.676923 13.784615s-41.353846 19.692308-55.138462 35.446154-23.630769 29.538462-29.538461 45.292308-7.876923 31.507692-7.876923 43.323077c0 21.661538 3.938462 39.384615 9.846153 55.138461 5.907692 13.784615-3.938462 27.569231-17.723077 27.569231h-96.492307c-9.846154 0-17.723077-9.846154-19.692308-17.723077zM785.723077 649.846154h-98.461539c-13.784615 0-23.630769 13.784615-17.723076 25.6 5.907692 11.815385 7.876923 27.569231 7.876923 43.323077 0 23.630769-5.907692 45.292308-15.753847 64.984615-11.815385 19.692308-25.6 33.476923-43.323076 47.261539-17.723077 11.815385-37.415385 21.661538-59.076924 27.56923-21.661538 5.907692-41.353846 9.846154-63.015384 9.846154-37.415385 0-72.861538-7.876923-106.338462-23.630769-25.6-11.815385-47.261538-27.569231-66.953846-49.230769-9.846154-11.815385-29.538462-13.784615-41.353846-3.938462l-55.138462 47.261539c-11.815385 9.846154-13.784615 29.538462-1.96923 41.353846 27.569231 31.507692 63.015385 55.138462 104.36923 70.892308 51.2 19.692308 106.338462 29.538462 165.415385 29.538461 43.323077 0 84.676923-5.907692 122.092308-19.692308 37.415385-11.815385 70.892308-31.507692 100.430769-55.138461 27.569231-23.630769 51.2-53.169231 66.953846-88.615385 15.753846-35.446154 25.6-72.861538 25.6-116.184615 0-15.753846 0-25.6-1.969231-39.384616-3.938462-3.938462-11.815385-11.815385-21.661538-11.815384z m196.923077-179.2c-3.938462-11.815385-15.753846-17.723077-27.569231-17.723077h-886.153846c-13.784615 0-23.630769 5.907692-27.569231 17.723077-1.969231 3.938462-1.969231 5.907692-1.969231 9.846154v59.076923c0 15.753846 13.784615 31.507692 29.538462 31.507692h886.153846c15.753846 0 29.538462-15.753846 29.538462-31.507692v-59.076923c0-3.938462 0-5.907692-1.969231-9.846154z" /></svg>